# ProBuilder 5.2.4
# https://unity3d.com/unity/features/worldbuilding/probuilder
# 12/20/2025 7:37:46 PM

mtllib ./Lshape.mtl
o Lshape

g Cube
v 0.5 -0.5 1.5
v -0.5 -0.5 1.5
v 0.5 0.5 1.5
v -0.5 0.5 1.5
v -1.5 -0.5 0.5
v -1.5 -0.5 -0.5
v -1.5 0.5 0.5
v -1.5 0.5 -0.5
v -0.5 -0.5 -0.5
v 0.5 -0.5 -0.5
v -0.5 0.5 -0.5
v 0.5 0.5 -0.5
v 0.5 -0.5 0.5
v 0.5 0.5 0.5
v -0.5 0.5 0.5
v -0.5 -0.5 0.5

vt 0.5 -0.5
vt -0.5 -0.5
vt 0.5 0.5
vt -0.5 0.5
vt -1.5 0.5
vt -1.5 -0.5
vt 1.5 -0.5
vt 1.5 0.5
vt 0.5 1.5
vt -0.5 1.5

vn 0 0 1
vn -1 0 0
vn 0 0 -1
vn 1 0 0
vn 0 1 0
vn 0 -1 0

usemtl red
f 3/3/1 4/4/1 2/2/1 1/1/1
f 7/3/2 8/4/2 6/2/2 5/1/2
f 11/3/3 12/4/3 10/2/3 9/1/3
f 12/3/4 14/4/4 13/2/4 10/1/4
f 12/2/5 11/1/5 15/3/5 14/4/5
f 13/3/6 16/4/6 9/2/6 10/1/6
f 5/5/6 6/6/6 9/2/6 16/4/6
f 7/5/1 5/6/1 16/2/1 15/4/1
f 6/7/3 8/8/3 11/3/3 9/1/3
f 8/7/5 7/8/5 15/3/5 11/1/5
f 1/9/6 2/10/6 16/4/6 13/3/6
f 3/5/4 1/6/4 13/2/4 14/4/4
f 2/7/2 4/8/2 15/3/2 16/1/2
f 4/9/5 3/10/5 14/4/5 15/3/5

